<?xml version="1.0" encoding="utf-8"?>
<!-- Generator: Adobe Illustrator 27.5.0, SVG Export Plug-In . SVG Version: 6.00 Build 0)  -->
<svg version="1.1" id="Layer_1" xmlns="http://www.w3.org/2000/svg" xmlns:xlink="http://www.w3.org/1999/xlink" x="0px" y="0px"
	 viewBox="0 0 4000 4000" style="enable-background:new 0 0 4000 4000;" xml:space="preserve">
<g>
	<rect style="fill-rule:evenodd;clip-rule:evenodd;fill:transparent;" width="4000" height="4000"/>
	<g>
		<defs>
			<path id="SVGID_1_" d="M1101.062,2158.368c108.115,277.721,593.173,309.836,948.182,53.593L1101.062,2158.368z"/>
		</defs>
		<clipPath id="SVGID_00000182530338470641560420000016112916143377853058_">
			<use xlink:href="#SVGID_1_"  style="overflow:visible;"/>
		</clipPath>
		
			<linearGradient id="SVGID_00000089569732821795207200000004016225267122173613_" gradientUnits="userSpaceOnUse" x1="1127.6694" y1="2255.2581" x2="2001.501" y2="2368.574">
			<stop  offset="0" style="stop-color:#FFCE4B"/>
			<stop  offset="1" style="stop-color:#E512C9"/>
		</linearGradient>
		
			<rect x="1101.062" y="2158.368" style="clip-path:url(#SVGID_00000182530338470641560420000016112916143377853058_);fill:url(#SVGID_00000089569732821795207200000004016225267122173613_);" width="948.182" height="309.836"/>
	</g>
	<g>
		<defs>
			<path id="SVGID_00000109010514411268832880000005994761094648201348_" d="M2153.728,1914.297l309.55-1005.612
				c215.194-717.779-1160.084,226.388-397.146,936.19C2093.896,1870.705,2123.202,1893.842,2153.728,1914.297"/>
		</defs>
		<clipPath id="SVGID_00000074439330659719040700000003431769204055557006_">
			<use xlink:href="#SVGID_00000109010514411268832880000005994761094648201348_"  style="overflow:visible;"/>
		</clipPath>
		
			<linearGradient id="SVGID_00000042707295206480969280000012857896085285940386_" gradientUnits="userSpaceOnUse" x1="1990.9498" y1="1354.97" x2="1990.7236" y2="766.0638">
			<stop  offset="0" style="stop-color:#00478F"/>
			<stop  offset="1" style="stop-color:#47EADF"/>
		</linearGradient>
		
			<rect x="1303.195" y="190.906" style="clip-path:url(#SVGID_00000074439330659719040700000003431769204055557006_);fill:url(#SVGID_00000042707295206480969280000012857896085285940386_);" width="1375.278" height="1723.391"/>
	</g>
	<defs>
		<filter id="Adobe_OpacityMaskFilter" filterUnits="userSpaceOnUse" x="1951.48" y="878.219" width="518.002" height="1036.078">
			<feColorMatrix  type="matrix" values="1 0 0 0 0  0 1 0 0 0  0 0 1 0 0  0 0 0 1 0"/>
		</filter>
	</defs>
	
		<mask maskUnits="userSpaceOnUse" x="1951.48" y="878.219" width="518.002" height="1036.078" id="SVGID_00000123443182052758455220000014887670662816137127_">
		<g style="filter:url(#Adobe_OpacityMaskFilter);">
			
				<linearGradient id="SVGID_00000016761600844414440610000003504427228722049422_" gradientUnits="userSpaceOnUse" x1="-173.4922" y1="2541.3323" x2="424.9411" y2="2615.4668" gradientTransform="matrix(1 0 0 1 2098.6311 -1180.4233)">
				<stop  offset="0" style="stop-color:#FFFFFF"/>
				<stop  offset="1" style="stop-color:#000000"/>
			</linearGradient>
			
				<rect x="1951.479" y="878.218" style="fill:url(#SVGID_00000016761600844414440610000003504427228722049422_);" width="518.003" height="1036.079"/>
		</g>
	</mask>
	
		<path style="mask:url(#SVGID_00000123443182052758455220000014887670662816137127_);fill-rule:evenodd;clip-rule:evenodd;fill:#003780;" d="
		M2153.728,1914.297l309.55-1005.612c2.334-7.788,4.239-15.123,6.203-22.52C2278.524,800.683,1624.873,1422.275,2153.728,1914.297"
		/>
	<g>
		<defs>
			<path id="SVGID_00000096020531822530765280000007251951801428479409_" d="M1091.98,1820.796
				c83.718-126.909,251.157-380.728,251.157-380.728c-57.783-77.816-37.13-248.066,75.03-335.358
				c229.35-178.501,578.696,38.333,729.567,361.644c112.385,240.839,43.668,497.426-24.699,634.465
				c-91.827,184.063-252.377,319.845-440.367,383.783c212.985-316.342-28.017-1073.538-239.014-988.727
				C1326.428,1604.181,1209.204,1712.489,1091.98,1820.796"/>
		</defs>
		<clipPath id="SVGID_00000077313418728615582940000000467226553075748996_">
			<use xlink:href="#SVGID_00000096020531822530765280000007251951801428479409_"  style="overflow:visible;"/>
		</clipPath>
		
			<linearGradient id="SVGID_00000021103028595453608440000002815474190068656538_" gradientUnits="userSpaceOnUse" x1="1676.3354" y1="2092.5168" x2="1675.4894" y2="946.4462">
			<stop  offset="0" style="stop-color:#A000AF"/>
			<stop  offset="1" style="stop-color:#26DFD3"/>
		</linearGradient>
		
			<rect x="1091.98" y="926.209" style="clip-path:url(#SVGID_00000077313418728615582940000000467226553075748996_);fill:url(#SVGID_00000021103028595453608440000002815474190068656538_);" width="1168.139" height="1558.393"/>
	</g>
	<g>
		<defs>
			<path id="SVGID_00000072975806975115410880000017107720966596817329_" d="M1483.653,1409.556l-140.516,30.513
				c0,0-167.439,253.819-251.157,380.728c117.224-108.307,234.448-216.615,351.673-324.921
				C1431.186,1455.18,1483.653,1409.556,1483.653,1409.556"/>
		</defs>
		<clipPath id="SVGID_00000005945338876229531790000011520737131069100968_">
			<use xlink:href="#SVGID_00000072975806975115410880000017107720966596817329_"  style="overflow:visible;"/>
		</clipPath>
		
			<linearGradient id="SVGID_00000124119295991051565910000010286968447079034540_" gradientUnits="userSpaceOnUse" x1="1570.9612" y1="1282.5336" x2="1124.6295" y2="1806.8899">
			<stop  offset="0" style="stop-color:#D77400"/>
			<stop  offset="1" style="stop-color:#F8BE3B"/>
		</linearGradient>
		
			<rect x="1091.98" y="1409.556" style="clip-path:url(#SVGID_00000005945338876229531790000011520737131069100968_);fill:url(#SVGID_00000124119295991051565910000010286968447079034540_);" width="391.673" height="411.241"/>
	</g>
	<defs>
		
			<filter id="Adobe_OpacityMaskFilter_00000127737568192549307040000008715718354655476669_" filterUnits="userSpaceOnUse" x="1441.738" y="1409.556" width="521.369" height="1075.046">
			<feColorMatrix  type="matrix" values="1 0 0 0 0  0 1 0 0 0  0 0 1 0 0  0 0 0 1 0"/>
		</filter>
	</defs>
	
		<mask maskUnits="userSpaceOnUse" x="1441.738" y="1409.556" width="521.369" height="1075.046" id="SVGID_00000178917909342523507920000010974634245244491946_">
		<g style="filter:url(#Adobe_OpacityMaskFilter_00000127737568192549307040000008715718354655476669_);">
			
				<linearGradient id="SVGID_00000150092962870989453470000011407849008935193776_" gradientUnits="userSpaceOnUse" x1="33.9202" y1="2711.0833" x2="-483.7823" y2="3191.521" gradientTransform="matrix(1 0 0 1 2008.2133 -1079.2627)">
				<stop  offset="0" style="stop-color:#FFFFFF"/>
				<stop  offset="1" style="stop-color:#000000"/>
			</linearGradient>
			
				<rect x="1441.738" y="1409.556" style="fill:url(#SVGID_00000150092962870989453470000011407849008935193776_);" width="521.37" height="1075.046"/>
		</g>
	</mask>
	
		<path style="mask:url(#SVGID_00000178917909342523507920000010974634245244491946_);fill-rule:evenodd;clip-rule:evenodd;fill:#003780;" d="
		M1483.653,1409.556c0,0-52.467,45.625-39.999,86.319c122.893-49.398,255.967,186.847,303.587,455.257
		c24.318,137.063,26.34,282.502-6.641,402.586l-0.069,0.251c-1.202,4.368-2.449,8.706-3.744,13.006l-0.071,0.237
		c-0.787,2.607-1.591,5.198-2.413,7.778c-0.23,0.722-0.461,1.442-0.695,2.164c-0.606,1.875-1.219,3.743-1.842,5.603
		c-0.307,0.913-0.615,1.824-0.926,2.731c-0.53,1.552-1.065,3.097-1.609,4.639c-0.402,1.141-0.808,2.281-1.217,3.417
		c-0.363,1.007-0.728,2.014-1.097,3.016c-0.606,1.648-1.221,3.289-1.843,4.925c-0.341,0.898-0.687,1.796-1.034,2.694
		c-0.661,1.703-1.327,3.4-2.003,5.089c-0.312,0.782-0.632,1.557-0.946,2.335c-0.646,1.585-1.297,3.164-1.956,4.735
		c-0.325,0.773-0.652,1.542-0.98,2.312c-0.67,1.571-1.347,3.137-2.033,4.695c-0.257,0.582-0.509,1.167-0.768,1.747
		c-0.823,1.85-1.661,3.685-2.506,5.516c-0.27,0.588-0.544,1.176-0.816,1.763c-0.859,1.837-1.727,3.662-2.608,5.48
		c-0.264,0.54-0.527,1.078-0.791,1.616c-0.917,1.873-1.846,3.737-2.787,5.587c-0.211,0.416-0.425,0.827-0.637,1.241
		c-1.002,1.952-2.015,3.896-3.045,5.823l-0.29,0.54c-1.025,1.913-2.067,3.812-3.122,5.701l-0.487,0.877
		c-1.071,1.906-2.157,3.798-3.255,5.678l-0.632,1.079c-1.091,1.855-2.197,3.696-3.316,5.524l-0.639,1.04
		c-1.149,1.864-2.311,3.714-3.489,5.55l-0.474,0.729c-1.248,1.938-2.512,3.862-3.793,5.767
		c79.45-27.021,153.99-66.884,220.518-117.795C2002.852,2059.819,2043.42,1417.472,1483.653,1409.556"/>
	<defs>
		
			<filter id="Adobe_OpacityMaskFilter_00000172419824553733212120000009545681151878197946_" filterUnits="userSpaceOnUse" x="1091.98" y="1409.556" width="391.673" height="411.241">
			<feColorMatrix  type="matrix" values="1 0 0 0 0  0 1 0 0 0  0 0 1 0 0  0 0 0 1 0"/>
		</filter>
	</defs>
	
		<mask maskUnits="userSpaceOnUse" x="1091.98" y="1409.556" width="391.673" height="411.241" id="SVGID_00000140701803801850761330000012248639043286985871_">
		<g style="filter:url(#Adobe_OpacityMaskFilter_00000172419824553733212120000009545681151878197946_);">
			
				<linearGradient id="SVGID_00000157987196763856812390000004854092170360351913_" gradientUnits="userSpaceOnUse" x1="-867.3905" y1="3007.2678" x2="-471.1786" y2="2637.4968" gradientTransform="matrix(1 0 0 1 1946.1733 -1197.0085)">
				<stop  offset="0" style="stop-color:#FFFFFF"/>
				<stop  offset="1" style="stop-color:#000000"/>
			</linearGradient>
			
				<rect x="1091.98" y="1409.555" style="fill:url(#SVGID_00000157987196763856812390000004854092170360351913_);" width="391.673" height="411.241"/>
		</g>
	</mask>
	
		<path style="mask:url(#SVGID_00000140701803801850761330000012248639043286985871_);fill-rule:evenodd;clip-rule:evenodd;fill:#FCE2A6;" d="
		M1091.98,1820.796l374.668-393.388c9.006-10.899,17.004-17.853,17.004-17.853l-140.516,30.513
		C1343.137,1440.068,1175.698,1693.887,1091.98,1820.796"/>
	<defs>
		
			<filter id="Adobe_OpacityMaskFilter_00000028296609528932058600000017214216419302282162_" filterUnits="userSpaceOnUse" x="1441.738" y="1409.556" width="521.369" height="573.546">
			<feColorMatrix  type="matrix" values="1 0 0 0 0  0 1 0 0 0  0 0 1 0 0  0 0 0 1 0"/>
		</filter>
	</defs>
	
		<mask maskUnits="userSpaceOnUse" x="1441.738" y="1409.556" width="521.369" height="573.546" id="SVGID_00000015333079068607855560000012272401312011274938_">
		<g style="filter:url(#Adobe_OpacityMaskFilter_00000028296609528932058600000017214216419302282162_);">
			
				<linearGradient id="SVGID_00000005265943243100450120000000410612984129534892_" gradientUnits="userSpaceOnUse" x1="-210.2359" y1="2599.4438" x2="-308.6689" y2="2872.5303" gradientTransform="matrix(1 0 0 1 2008.2133 -1168.2188)">
				<stop  offset="0" style="stop-color:#FFFFFF"/>
				<stop  offset="1" style="stop-color:#000000"/>
			</linearGradient>
			
				<rect x="1441.738" y="1409.555" style="fill:url(#SVGID_00000005265943243100450120000000410612984129534892_);" width="521.369" height="573.547"/>
		</g>
	</mask>
	
		<path style="mask:url(#SVGID_00000015333079068607855560000012272401312011274938_);fill-rule:evenodd;clip-rule:evenodd;fill:#102770;" d="
		M1634.48,1622.165c218.528-216.002,328.627,360.937,328.627,360.937c-0.127-281.598-106.651-568.275-479.454-573.546
		c0,0-52.467,45.625-39.999,86.319C1509.204,1469.527,1577.649,1524.445,1634.48,1622.165"/>
	<defs>
		
			<filter id="Adobe_OpacityMaskFilter_00000098911061020014147910000011841932340777638827_" filterUnits="userSpaceOnUse" x="1483.645" y="1408.544" width="475.066" height="479.037">
			<feColorMatrix  type="matrix" values="1 0 0 0 0  0 1 0 0 0  0 0 1 0 0  0 0 0 1 0"/>
		</filter>
	</defs>
	
		<mask maskUnits="userSpaceOnUse" x="1483.645" y="1408.544" width="475.066" height="479.037" id="SVGID_00000142888987545013182300000013125085486515033253_">
		<g style="filter:url(#Adobe_OpacityMaskFilter_00000098911061020014147910000011841932340777638827_);">
			
				<linearGradient id="SVGID_00000162316492484011497120000014172288786091101076_" gradientUnits="userSpaceOnUse" x1="-29.8555" y1="2213.7593" x2="-445.2906" y2="3186.303" gradientTransform="matrix(1 0 0 1 2015.6469 -1185.1622)">
				<stop  offset="0" style="stop-color:#FFFFFF"/>
				<stop  offset="1" style="stop-color:#000000"/>
			</linearGradient>
			
				<rect x="1483.645" y="1408.544" style="fill:url(#SVGID_00000162316492484011497120000014172288786091101076_);" width="475.066" height="479.037"/>
		</g>
	</mask>
	
		<path style="mask:url(#SVGID_00000142888987545013182300000013125085486515033253_);fill-rule:evenodd;clip-rule:evenodd;fill:#5EF9F6;" d="
		M1483.645,1409.694c330.491,4.675,451.716,230.5,475.066,477.887C1949.765,1684.292,1870.989,1387.764,1483.645,1409.694"/>
	<defs>
		
			<filter id="Adobe_OpacityMaskFilter_00000140723440281315594130000003573705227944380081_" filterUnits="userSpaceOnUse" x="1311.836" y="1040.443" width="645.978" height="399.625">
			<feColorMatrix  type="matrix" values="1 0 0 0 0  0 1 0 0 0  0 0 1 0 0  0 0 0 1 0"/>
		</filter>
	</defs>
	
		<mask maskUnits="userSpaceOnUse" x="1311.836" y="1040.443" width="645.978" height="399.625" id="SVGID_00000129898805211918188360000016874747059742095295_">
		<g style="filter:url(#Adobe_OpacityMaskFilter_00000140723440281315594130000003573705227944380081_);">
			
				<linearGradient id="SVGID_00000146498104386409411380000016777278371766515584_" gradientUnits="userSpaceOnUse" x1="-431.8768" y1="2175.282" x2="-328.9341" y2="2591.3379" gradientTransform="matrix(1 0 0 1 1985.1711 -1264.542)">
				<stop  offset="0" style="stop-color:#FFFFFF"/>
				<stop  offset="1" style="stop-color:#000000"/>
			</linearGradient>
			
				<rect x="1311.835" y="1040.442" style="fill:url(#SVGID_00000146498104386409411380000016777278371766515584_);" width="645.979" height="399.627"/>
		</g>
	</mask>
	
		<path style="mask:url(#SVGID_00000129898805211918188360000016874747059742095295_);fill-rule:evenodd;clip-rule:evenodd;fill:#5EF9F6;" d="
		M1343.137,1440.068c0,0,72.042-422.157,614.677-236.856c-167.616-157.098-381.984-221.21-539.647-98.503
		C1306.007,1192.002,1285.354,1362.252,1343.137,1440.068"/>
	<g>
		<defs>
			<path id="SVGID_00000173122162840923748800000009338666208467139516_" d="M1957.333,1863.418l1041.937-514.421
				c739.34-371.796-1061.751-759.345-1052.67,391.454C1946.93,1782.329,1950.591,1823.401,1957.333,1863.418"/>
		</defs>
		<clipPath id="SVGID_00000002374499134544474210000010430139878605125814_">
			<use xlink:href="#SVGID_00000173122162840923748800000009338666208467139516_"  style="overflow:visible;"/>
		</clipPath>
		
			<linearGradient id="SVGID_00000114773719495353367410000001478264606683209141_" gradientUnits="userSpaceOnUse" x1="2315.28" y1="2094.3411" x2="2944.3259" y2="1050.1427">
			<stop  offset="0" style="stop-color:#00478F"/>
			<stop  offset="1" style="stop-color:#47EADF"/>
		</linearGradient>
		
			<rect x="1937.518" y="589.652" style="clip-path:url(#SVGID_00000002374499134544474210000010430139878605125814_);fill:url(#SVGID_00000114773719495353367410000001478264606683209141_);" width="1801.091" height="1273.766"/>
	</g>
	<defs>
		
			<filter id="Adobe_OpacityMaskFilter_00000147914094905854537830000013351803510183315848_" filterUnits="userSpaceOnUse" x="1957.303" y="1197.296" width="1064.747" height="666.122">
			<feColorMatrix  type="matrix" values="1 0 0 0 0  0 1 0 0 0  0 0 1 0 0  0 0 0 1 0"/>
		</filter>
	</defs>
	
		<mask maskUnits="userSpaceOnUse" x="1957.303" y="1197.296" width="1064.747" height="666.122" id="SVGID_00000093887382403123625050000015184349010930251678_">
		<g style="filter:url(#Adobe_OpacityMaskFilter_00000147914094905854537830000013351803510183315848_);">
			
				<linearGradient id="SVGID_00000129207898017080201310000004618977535666528691_" gradientUnits="userSpaceOnUse" x1="282.1703" y1="2353.9075" x2="483.0391" y2="3035.4392" gradientTransform="matrix(1 0 0 1 2099.6641 -1189.4482)">
				<stop  offset="0" style="stop-color:#FFFFFF"/>
				<stop  offset="1" style="stop-color:#000000"/>
			</linearGradient>
			
				<rect x="1957.302" y="1197.296" style="fill:url(#SVGID_00000129207898017080201310000004618977535666528691_);" width="1064.747" height="666.122"/>
		</g>
	</mask>
	
		<path style="mask:url(#SVGID_00000093887382403123625050000015184349010930251678_);fill-rule:evenodd;clip-rule:evenodd;fill:#003780;" d="
		M1957.333,1863.418l1041.937-514.421c8.019-4.033,15.352-8.068,22.781-12.104
		C2945.796,1118.781,1951.037,1065.703,1957.333,1863.418"/>
	<g>
		<defs>
			<path id="SVGID_00000158711248444143894310000009575273667366428549_" d="M1022.003,2385.571
				c195.982,263.292,720.42,155.611,1022.483-220.25L1022.003,2385.571z"/>
		</defs>
		<clipPath id="SVGID_00000103963298058678919130000007765374669264008362_">
			<use xlink:href="#SVGID_00000158711248444143894310000009575273667366428549_"  style="overflow:visible;"/>
		</clipPath>
		
			<linearGradient id="SVGID_00000022547520637248065110000010570678439981282486_" gradientUnits="userSpaceOnUse" x1="1077.2367" y1="2471.189" x2="2038.2256" y2="2336.1118">
			<stop  offset="0" style="stop-color:#FFCE4B"/>
			<stop  offset="1" style="stop-color:#E512C9"/>
		</linearGradient>
		
			<rect x="1022.003" y="2165.321" style="clip-path:url(#SVGID_00000103963298058678919130000007765374669264008362_);fill:url(#SVGID_00000022547520637248065110000010570678439981282486_);" width="1022.483" height="483.543"/>
	</g>
	<g>
		<defs>
			<path id="SVGID_00000171001339133128393600000014475892563669644938_" d="M1296.207,2606.722
				c336.427,258.773,781.993-38.091,862.937-591.337L1296.207,2606.722z"/>
		</defs>
		<clipPath id="SVGID_00000115482909828361309440000002948982803531010993_">
			<use xlink:href="#SVGID_00000171001339133128393600000014475892563669644938_"  style="overflow:visible;"/>
		</clipPath>
		
			<linearGradient id="SVGID_00000129175767953261505080000006168657641679384194_" gradientUnits="userSpaceOnUse" x1="1372.2278" y1="2651.0515" x2="2207.6101" y2="2156.0686">
			<stop  offset="0" style="stop-color:#FFCE4B"/>
			<stop  offset="1" style="stop-color:#E512C9"/>
		</linearGradient>
		
			<rect x="1296.207" y="2015.386" style="clip-path:url(#SVGID_00000115482909828361309440000002948982803531010993_);fill:url(#SVGID_00000129175767953261505080000006168657641679384194_);" width="862.937" height="850.109"/>
	</g>
	<path style="fill:#231916;" d="M3224.794,3337.442v-448.581h-83.828v448.581H3224.794z M2922.113,2967.57
		c53.114,0,76.791,35.942,76.791,71.991s-23.036,71.991-76.791,71.991H2793.49V2967.57H2922.113z M3105.769,3331.683
		l-135.662-152.94c85.109-17.278,113.266-79.351,113.266-141.101c0-77.75-55.673-148.141-161.26-148.781
		c-71.029,0.64-142.06,0-213.091,0v448.581h84.469v-149.74h81.268l130.545,149.74h100.465V3331.683z M2481.211,2888.861
		c-71.031,0-142.061,0-212.453,0v448.581c71.031,0,141.422,0,212.453,0c92.787,0,167.657-31.996,167.657-131.823
		c0-28.156-19.196-83.83-71.669-99.827c41.594-18.558,58.232-51.94,58.232-86.709
		C2635.431,2928.536,2569.519,2888.861,2481.211,2888.861z M2351.949,2965.651h129.262c53.753,0,70.39,34.769,70.39,55.353
		c0,25.81-17.276,48.314-70.39,48.314h-129.262V2965.651z M2351.949,3143.548h129.262c34.555,0,83.828,21.117,83.828,61.433
		c0,42.234-49.273,53.752-83.828,53.752h-129.262V3143.548z M2191.968,3337.442v-448.581h-83.828v448.581H2191.968z
		 M1733.148,2888.861v448.581h314.839v-78.07h-230.37v-370.511H1733.148z M1441.346,2957.332
		c105.588,0,147.821,84.469,146.541,159.979c-1.28,73.591-40.953,152.941-146.541,152.941c-105.586,0-145.261-78.709-147.18-152.3
		C1292.246,3042.441,1335.76,2957.332,1441.346,2957.332z M1441.346,2880.543c-154.859,0-230.37,118.383-230.37,236.129
		c0,117.743,72.95,231.01,230.37,231.01c157.42,0,228.452-115.825,229.73-231.649
		C1672.356,2998.926,1595.565,2880.543,1441.346,2880.543z M1125.869,3222.898c-29.436,29.436-73.591,45.433-112.625,45.433
		c-110.706,0-153.581-77.429-154.22-151.659c-0.641-74.871,46.073-155.5,154.22-155.5c39.034,0,78.709,13.439,108.146,42.235
		l56.312-54.393c-46.073-45.434-103.666-68.471-164.458-68.471c-161.898,0-238.049,119.024-237.409,236.129
		c0.639,116.465,71.03,231.01,237.409,231.01c64.63,0,124.144-21.117,170.218-66.552L1125.869,3222.898z"/>
</g>
</svg>
