<?xml version="1.0" ?><svg xmlns="http://www.w3.org/2000/svg" xmlns:xlink="http://www.w3.org/1999/xlink" version="1.1" id="design" viewBox="0 0 100 100" style="enable-background:new 0 0 100 100;" xml:space="preserve"><style type="text/css">
	.st0{fill:#5222d0;}
	.st1{fill:#ffffff;}
</style><g><path class="st0" d="M81.5,39.9V21.2c0-1.5-1.1-2.6-2.5-2.6H60.1c-1.4,0-2.5,1.1-2.5,2.6v18.6c0,1.5,1.1,2.6,2.5,2.6h19   C80.3,42.5,81.5,41.3,81.5,39.9z"/><g><path class="st1" d="M37.5,43.6c3.8,0,7-3,7-6.7s-3.1-6.7-7-6.7c-3.8,0-7,3-7,6.7C30.5,40.7,33.6,43.6,37.5,43.6z M37.5,32.2    c2.7,0,4.9,2.2,4.9,4.7c0,2.6-2.2,4.7-4.9,4.7c-2.7,0-4.9-2.2-4.9-4.7C32.6,34.4,34.7,32.2,37.5,32.2z"/><path class="st1" d="M44,54.8v-2.4c-0.1-0.7-0.6-1.1-1-1.1c-0.6,0-1,0.5-1,1v2.1h-3.5l-1-3.5c-0.1-0.5-0.6-0.7-0.9-0.7H19.1    c-0.3,0-0.6,0.1-0.8,0.5c-0.2,0.1-0.2,0.5-0.2,0.8l3.9,13c0.1,0.5,0.6,0.7,0.9,0.7h17.3c0.3,0,0.6-0.1,0.8-0.5    c0.2-0.3,0.2-0.6,0.1-0.9L39,56.4h3.3C43.2,56.4,44,55.7,44,54.8z M23.7,63.1l-3.3-11.1h15.3l3.2,11.1H23.7z"/><path class="st1" d="M29.5,48.3c0.9-0.8,2.2-1.4,3.6-1.4h8.7c3,0,5.2,2.3,5.2,5c0,0.6,0.5,1,1,1s1-0.5,1-1c0-4-3.3-7.1-7.3-7.1    h-8.7c-1.9,0-3.6,0.7-4.9,1.9c-0.5,0.3-0.5,1-0.1,1.4C28.5,48.6,29.2,48.6,29.5,48.3z"/><path class="st1" d="M57.5,54c4.7,0,8.5-3.8,8.5-8.3c0-4.7-3.9-8.3-8.5-8.3S49,41.1,49,45.7S52.8,53.9,57.5,54z M57.5,39.4    c3.5,0,6.5,2.8,6.5,6.3s-2.8,6.3-6.5,6.3S51,49.1,51,45.7S53.9,39.4,57.5,39.4z"/><path class="st1" d="M81.7,63.2c-0.2-0.3-0.5-0.5-0.8-0.5H58.8c-0.3,0-0.8,0.2-0.9,0.7L56.5,68h-4.9v-2.8c0-0.6-0.5-1-1-1    s-1,0.5-1,1v3.1c0,1,0.8,1.8,1.8,1.8h4.6l-1.3,4.3h-6c-1.9,0-3.5-1.6-3.5-3.4v-6.2c0-3.6,3.1-6.7,7-6.7H63c1.8,0,3.5,0.7,4.8,1.8    c0.3,0.3,1,0.3,1.4-0.1c0.3-0.3,0.3-1-0.1-1.4C67.5,57,65.3,56,62.9,56H52c-4.9,0-9,3.9-9,8.8l0.1,6.2c0,3.1,2.5,5.5,5.6,5.5h5.4    l-0.8,2.8h-6.5c-0.6,0-1,0.5-1,1s0.5,1,1,1h6.7c0.1,0.1,0.3,0.1,0.5,0.1H76c0.3,0,0.8-0.2,0.9-0.7l4.9-16.6    C81.9,63.8,81.9,63.5,81.7,63.2z M75.3,79.3H55.3l4.3-14.6h20.1L75.3,79.3z"/><path class="st1" d="M67.6,34.2c0.2,0.2,0.5,0.3,0.8,0.3c0,0,0,0,0,0c0.3,0,0.6-0.1,0.8-0.3l5.8-5.8c0.4-0.4,0.4-1.2,0-1.6    s-1.2-0.4-1.6,0l-5,5l-2.7-2.8c-0.4-0.5-1.2-0.5-1.6,0c-0.5,0.4-0.5,1.2,0,1.6L67.6,34.2z"/></g></g></svg>