<?xml version="1.0" ?><svg xmlns="http://www.w3.org/2000/svg" xmlns:xlink="http://www.w3.org/1999/xlink" version="1.1" id="Layer_1" viewBox="0 0 100 100" style="enable-background:new 0 0 100 100;" xml:space="preserve"><style type="text/css">
	.st0{fill:#5222d0;}
	.st1{fill:#ffffff;}
</style><g><path class="st0" d="M59.6,82.9H40.4c-2.2,0-3.9-1.8-3.9-3.9V49.7c0-2.2,1.8-3.9,3.9-3.9h19.2c2.2,0,3.9,1.8,3.9,3.9V79   C63.5,81.1,61.8,82.9,59.6,82.9z"/><g><path class="st1" d="M74.4,38.6c-0.1-7.3-6.2-13.3-13.5-13.3c-1.1,0-2.1,0.1-3.1,0.4c-2.5-5.2-7.7-8.6-13.6-8.6    c-8.3,0-15,6.7-15.1,15c-6.8,0.8-11.9,6.5-11.9,13.4C17.1,53,23.2,59,30.6,59h9.7c0.6,0,1.2-0.5,1.2-1.2s-0.5-1.2-1.2-1.2h-9.7    c-6.2,0-11.2-5-11.2-11.2c0-6.1,4.8-11,10.8-11.2c0.3,0,0.6-0.1,0.8-0.4c0.2-0.2,0.3-0.5,0.3-0.9l0-0.2c0-0.2,0-0.5,0-0.7    c0-7,5.7-12.8,12.8-12.8c5.3,0,9.9,3.2,11.9,8.1c0.2,0.6,0.9,0.9,1.5,0.7c1.1-0.4,2.3-0.5,3.4-0.5c6.2,0,11.2,5,11.2,11.2    c0,0.2,0,0.3,0,0.5l0,0.2c0,0.6,0.5,1.2,1.1,1.2c4.2,0.3,7.5,3.8,7.5,7.9c0,4.4-3.6,8-8,8H59.7c-0.6,0-1.2,0.5-1.2,1.2    s0.5,1.2,1.2,1.2h12.9c5.7,0,10.3-4.6,10.3-10.3C82.9,43.7,79.3,39.4,74.4,38.6z"/><path class="st1" d="M50,70.2c-0.8,0-1.5,0.7-1.5,1.5c0,0.8,0.7,1.5,1.5,1.5c0,0,0,0,0,0c0.8,0,1.5-0.8,1.4-1.6c0,0,0,0,0,0    C51.4,70.8,50.8,70.2,50,70.2z"/><path class="st1" d="M50,74.6C50,74.6,50,74.6,50,74.6c-0.8,0-1.5,0.7-1.5,1.5c0,0.8,0.7,1.5,1.5,1.5c0,0,0,0,0.1,0    c0.8,0,1.5-0.8,1.4-1.6c0,0,0,0,0,0C51.4,75.2,50.8,74.6,50,74.6z"/><path class="st1" d="M50.8,49.6c-0.1-0.1-0.2-0.2-0.3-0.2c0,0-0.1,0-0.1,0c0,0,0,0,0,0c-0.1,0-0.2-0.1-0.4-0.1c0,0,0,0,0,0    c0,0,0,0,0,0c0,0,0,0,0,0c0,0,0,0,0,0h0c0,0,0,0,0,0s0,0,0,0h0c0,0,0,0,0,0c0,0,0,0,0,0c-0.1,0-0.3,0-0.4,0.1c0,0,0,0-0.1,0l0,0    c0,0,0,0,0,0c-0.1,0.1-0.2,0.1-0.3,0.2l-4.3,4c-0.5,0.4-0.5,1.2-0.1,1.7c0.4,0.5,1.2,0.5,1.7,0.1l2.4-2.2v12.9    c0,0.6,0.5,1.2,1.2,1.2s1.2-0.5,1.2-1.2V53.1l2.4,2.2c0.5,0.4,1.2,0.4,1.7-0.1c0.4-0.5,0.4-1.2-0.1-1.7L50.8,49.6z"/></g></g></svg>